<svg width="462" height="323" viewBox="0 0 462 323" fill="none" xmlns="http://www.w3.org/2000/svg">
    <rect width="462" height="323" fill="#20201E"/>
    <path fill-rule="evenodd" clip-rule="evenodd" d="M284.5 143C270.826 143 259.75 154.076 259.75 167.75C259.75 181.424 270.826 192.5 284.5 192.5C298.174 192.5 309.25 181.424 309.25 167.75C309.25 154.076 298.174 143 284.5 143ZM296.875 167.75C296.875 160.944 291.306 155.375 284.5 155.375C277.694 155.375 272.125 160.944 272.125 167.75C272.125 174.556 277.694 180.125 284.5 180.125C291.306 180.125 296.875 174.556 296.875 167.75ZM321.625 229.625C320.387 225.232 301.206 217.25 284.5 217.25C267.856 217.25 248.798 225.17 247.375 229.625H321.625ZM235 229.625C235 213.166 267.979 204.875 284.5 204.875C301.021 204.875 334 213.166 334 229.625V242H235V229.625Z" fill="white"/>
    <path fill-rule="evenodd" clip-rule="evenodd" d="M353.5 187C345.903 187 339.75 193.153 339.75 200.75C339.75 208.347 345.903 214.5 353.5 214.5C361.097 214.5 367.25 208.347 367.25 200.75C367.25 193.153 361.097 187 353.5 187ZM360.375 200.75C360.375 196.969 357.281 193.875 353.5 193.875C349.719 193.875 346.625 196.969 346.625 200.75C346.625 204.531 349.719 207.625 353.5 207.625C357.281 207.625 360.375 204.531 360.375 200.75ZM374.125 235.125C373.438 232.684 362.781 228.25 353.5 228.25C344.253 228.25 333.666 232.65 332.875 235.125H374.125ZM326 235.125C326 225.981 344.322 221.375 353.5 221.375C362.678 221.375 381 225.981 381 235.125V242H326V235.125Z" fill="white"/>
    <path fill-rule="evenodd" clip-rule="evenodd" d="M120.25 121.25C120.25 99.0119 138.262 81 160.5 81C182.738 81 200.75 99.0119 200.75 121.25C200.75 143.488 182.738 161.5 160.5 161.5C138.262 161.5 120.25 143.488 120.25 121.25ZM80 221.875C80 195.109 133.633 181.625 160.5 181.625C187.367 181.625 241 195.109 241 221.875V242H80V221.875Z" fill="#B71C1C"/>
</svg>
