<svg width="462" height="323" viewBox="0 0 462 323" fill="none" xmlns="http://www.w3.org/2000/svg">
    <g clip-path="url(#clip0)">
        <rect width="462" height="323" fill="#20201E"/>
        <path d="M46 283C46 233.935 65.491 186.879 100.185 152.185C134.879 117.491 181.935 98 231 98C280.065 98 327.121 117.491 361.815 152.185C396.509 186.879 416 233.935 416 283L231 283L46 283Z" fill="#B71C1C"/>
        <path d="M189.093 253H138.318V245.921L163.706 217.713C165.976 215.194 167.875 212.959 169.4 211.007C170.926 209.056 172.15 207.264 173.073 205.632C173.995 203.964 174.652 202.403 175.042 200.948C175.432 199.458 175.627 197.932 175.627 196.371C175.627 194.455 175.308 192.663 174.669 190.996C174.066 189.292 173.161 187.82 171.955 186.578C170.784 185.336 169.347 184.361 167.644 183.651C165.976 182.906 164.078 182.533 161.949 182.533C159.359 182.533 157.106 182.906 155.19 183.651C153.309 184.396 151.73 185.46 150.453 186.844C149.211 188.193 148.271 189.842 147.632 191.794C147.029 193.745 146.728 195.928 146.728 198.34H136.828C136.828 195.076 137.396 192.007 138.531 189.133C139.667 186.223 141.299 183.686 143.428 181.522C145.592 179.358 148.218 177.637 151.305 176.359C154.427 175.082 157.975 174.443 161.949 174.443C165.604 174.443 168.886 174.993 171.795 176.093C174.74 177.158 177.224 178.648 179.247 180.564C181.269 182.48 182.812 184.751 183.877 187.376C184.977 190.002 185.527 192.858 185.527 195.945C185.527 198.252 185.137 200.54 184.356 202.811C183.575 205.046 182.511 207.264 181.163 209.464C179.85 211.664 178.306 213.846 176.532 216.01C174.794 218.139 172.949 220.268 170.997 222.397L150.187 244.963H189.093V253ZM255.674 223.355C255.674 228.287 255.107 232.669 253.971 236.501C252.836 240.298 251.204 243.509 249.075 246.134C246.946 248.724 244.338 250.694 241.251 252.042C238.164 253.39 234.634 254.064 230.66 254.064C226.721 254.064 223.191 253.39 220.068 252.042C216.981 250.694 214.356 248.724 212.191 246.134C210.027 243.509 208.359 240.298 207.188 236.501C206.053 232.669 205.485 228.287 205.485 223.355V205.206C205.485 200.274 206.053 195.91 207.188 192.113C208.324 188.281 209.956 185.052 212.085 182.427C214.249 179.801 216.875 177.814 219.962 176.466C223.084 175.082 226.615 174.39 230.553 174.39C234.527 174.39 238.058 175.082 241.145 176.466C244.267 177.814 246.893 179.801 249.021 182.427C251.186 185.052 252.836 188.281 253.971 192.113C255.107 195.91 255.674 200.274 255.674 205.206V223.355ZM215.385 221.386L245.562 198.234C244.994 193.089 243.486 189.186 241.038 186.525C238.625 183.828 235.13 182.48 230.553 182.48C225.373 182.48 221.541 184.236 219.057 187.749C216.609 191.226 215.385 196.318 215.385 203.024V221.386ZM245.775 207.654L215.651 230.7C216.254 235.703 217.798 239.517 220.281 242.143C222.765 244.768 226.224 246.081 230.66 246.081C235.875 246.081 239.69 244.307 242.103 240.759C244.551 237.211 245.775 232.101 245.775 225.431V207.654ZM265.574 189.452C265.574 187.43 265.875 185.514 266.479 183.704C267.117 181.859 268.022 180.245 269.193 178.861C270.399 177.477 271.889 176.395 273.664 175.614C275.438 174.798 277.478 174.39 279.784 174.39C282.126 174.39 284.184 174.798 285.958 175.614C287.768 176.395 289.258 177.477 290.429 178.861C291.635 180.245 292.54 181.859 293.143 183.704C293.782 185.514 294.101 187.43 294.101 189.452V193.55C294.101 195.573 293.782 197.489 293.143 199.298C292.54 201.108 291.635 202.705 290.429 204.088C289.258 205.437 287.785 206.519 286.011 207.335C284.237 208.116 282.197 208.506 279.891 208.506C277.584 208.506 275.526 208.116 273.717 207.335C271.943 206.519 270.452 205.437 269.246 204.088C268.04 202.705 267.117 201.108 266.479 199.298C265.875 197.489 265.574 195.573 265.574 193.55V189.452ZM272.918 193.55C272.918 194.65 273.043 195.715 273.291 196.744C273.539 197.737 273.947 198.642 274.515 199.458C275.083 200.239 275.792 200.877 276.644 201.374C277.531 201.835 278.613 202.066 279.891 202.066C281.132 202.066 282.179 201.835 283.031 201.374C283.918 200.877 284.627 200.239 285.16 199.458C285.692 198.642 286.082 197.737 286.331 196.744C286.614 195.715 286.756 194.65 286.756 193.55V189.452C286.756 188.352 286.614 187.288 286.331 186.259C286.082 185.194 285.674 184.272 285.106 183.491C284.574 182.675 283.865 182.036 282.978 181.575C282.126 181.078 281.062 180.83 279.784 180.83C278.542 180.83 277.478 181.078 276.591 181.575C275.739 182.036 275.03 182.675 274.462 183.491C273.93 184.272 273.539 185.194 273.291 186.259C273.043 187.288 272.918 188.352 272.918 189.452V193.55ZM297.561 235.011C297.561 232.988 297.862 231.072 298.465 229.263C299.104 227.453 300.027 225.856 301.233 224.473C302.439 223.089 303.93 222.007 305.704 221.226C307.478 220.41 309.518 220.002 311.824 220.002C314.166 220.002 316.224 220.41 317.998 221.226C319.772 222.007 321.262 223.089 322.469 224.473C323.675 225.856 324.58 227.453 325.183 229.263C325.822 231.072 326.141 232.988 326.141 235.011V239.162C326.141 241.185 325.822 243.101 325.183 244.91C324.58 246.72 323.675 248.316 322.469 249.7C321.262 251.049 319.772 252.131 317.998 252.947C316.259 253.727 314.237 254.118 311.931 254.118C309.589 254.118 307.513 253.727 305.704 252.947C303.93 252.131 302.439 251.049 301.233 249.7C300.027 248.316 299.104 246.72 298.465 244.91C297.862 243.101 297.561 241.185 297.561 239.162V235.011ZM304.905 239.162C304.905 240.262 305.029 241.326 305.278 242.355C305.562 243.384 305.97 244.307 306.502 245.123C307.07 245.904 307.797 246.542 308.684 247.039C309.571 247.5 310.653 247.731 311.931 247.731C313.173 247.731 314.219 247.5 315.071 247.039C315.958 246.542 316.667 245.904 317.2 245.123C317.732 244.307 318.122 243.384 318.371 242.355C318.619 241.326 318.743 240.262 318.743 239.162V235.011C318.743 233.911 318.619 232.846 318.371 231.817C318.122 230.788 317.714 229.884 317.146 229.103C316.614 228.287 315.905 227.648 315.018 227.187C314.131 226.69 313.066 226.442 311.824 226.442C310.547 226.442 309.465 226.69 308.578 227.187C307.726 227.648 307.016 228.287 306.449 229.103C305.917 229.884 305.526 230.788 305.278 231.817C305.029 232.846 304.905 233.911 304.905 235.011V239.162ZM284.415 242.994L278.507 239.694L308.684 184.502L314.592 187.802L284.415 242.994Z" fill="white"/>
    </g>
    <defs>
        <clipPath id="clip0">
            <rect width="462" height="323" fill="white"/>
        </clipPath>
    </defs>
</svg>
