<svg width="462" height="323" viewBox="0 0 462 323" fill="none" xmlns="http://www.w3.org/2000/svg">
<g clip-path="url(#clip0)">
<rect width="462" height="323" fill="#20201E"/>
<path d="M46 283C46 233.935 65.491 186.879 100.185 152.185C134.879 117.491 181.935 98 231 98C280.065 98 327.121 117.491 361.815 152.185C396.509 186.879 416 233.935 416 283L231 283L46 283Z" fill="#B71C1C"/>
<path d="M328.145 111.516C328.843 110.503 330.4 111.401 329.871 112.513L243.648 293.932C243.397 294.459 242.75 294.66 242.244 294.368L214.467 278.331C213.961 278.039 213.812 277.378 214.144 276.897L328.145 111.516Z" fill="white"/>
<circle cx="230.5" cy="282.5" r="17.5" fill="white"/>
</g>
<defs>
<clipPath id="clip0">
<rect width="462" height="323" fill="white"/>
</clipPath>
</defs>
</svg>
