<svg width="462" height="323" viewBox="0 0 462 323" fill="none" xmlns="http://www.w3.org/2000/svg">
    <rect width="462" height="323" fill="#20201E"/>
    <path fill-rule="evenodd" clip-rule="evenodd" d="M126 172C116.331 172 108.5 179.831 108.5 189.5C108.5 199.169 116.331 207 126 207C135.669 207 143.5 199.169 143.5 189.5C143.5 179.831 135.669 172 126 172ZM134.75 189.5C134.75 184.688 130.812 180.75 126 180.75C121.187 180.75 117.25 184.688 117.25 189.5C117.25 194.312 121.187 198.25 126 198.25C130.812 198.25 134.75 194.312 134.75 189.5ZM152.25 233.25C151.375 230.144 137.812 224.5 126 224.5C114.231 224.5 100.756 230.1 99.75 233.25H152.25ZM91 233.25C91 221.612 114.319 215.75 126 215.75C137.681 215.75 161 221.612 161 233.25V242H91V233.25Z" fill="white"/>
    <path fill-rule="evenodd" clip-rule="evenodd" d="M337 172C327.331 172 319.5 179.831 319.5 189.5C319.5 199.169 327.331 207 337 207C346.669 207 354.5 199.169 354.5 189.5C354.5 179.831 346.669 172 337 172ZM345.75 189.5C345.75 184.688 341.812 180.75 337 180.75C332.187 180.75 328.25 184.688 328.25 189.5C328.25 194.312 332.187 198.25 337 198.25C341.812 198.25 345.75 194.312 345.75 189.5ZM363.25 233.25C362.375 230.144 348.812 224.5 337 224.5C325.231 224.5 311.756 230.1 310.75 233.25H363.25ZM302 233.25C302 221.612 325.319 215.75 337 215.75C348.681 215.75 372 221.612 372 233.25V242H302V233.25Z" fill="white"/>
    <path fill-rule="evenodd" clip-rule="evenodd" d="M190.25 121.25C190.25 99.0119 208.262 81 230.5 81C252.738 81 270.75 99.0119 270.75 121.25C270.75 143.488 252.738 161.5 230.5 161.5C208.262 161.5 190.25 143.488 190.25 121.25ZM150 221.875C150 195.109 203.633 181.625 230.5 181.625C257.367 181.625 311 195.109 311 221.875V242H150V221.875Z" fill="#B71C1C"/>
</svg>
