<svg width="320" height="37" viewBox="0 0 320 37" fill="none" xmlns="http://www.w3.org/2000/svg">
<path d="M120.454 37V0.082774H113V37H120.454ZM153.668 10.6779C155.426 8.93959 157.185 7.20134 158.944 5.46309C147.219 -6.12527 127.12 2.06935 127.12 18.4586C127.12 34.9306 147.219 43.1253 158.944 31.5369C157.185 29.7986 155.426 28.0604 153.668 26.3221C146.633 33.2751 134.573 28.3087 134.573 18.4586C134.573 8.60849 146.633 3.72483 153.668 10.6779ZM202.879 18.5414C202.879 8.36017 194.588 0.082774 184.287 0.082774C173.985 0.082774 165.611 8.36017 165.611 18.5414C165.611 28.7226 173.985 36.9172 184.287 36.9172C194.588 36.9172 202.879 28.7226 202.879 18.5414ZM173.064 18.5414C173.064 12.4161 178.09 7.44966 184.287 7.44966C190.401 7.44966 195.425 12.4161 195.425 18.5414C195.425 24.6667 190.401 29.5503 184.287 29.5503C178.09 29.5503 173.064 24.6667 173.064 18.5414ZM217.035 0.082774C214.524 0.082774 212.094 0.082774 209.582 0.082774C209.582 6.29083 209.582 12.4161 209.582 18.5414C209.582 24.6667 209.582 30.7919 209.582 37C212.094 37 214.524 37 217.035 37C217.035 30.7919 217.035 24.6667 217.035 18.5414C217.035 12.4161 222.061 7.44966 228.258 7.44966C228.258 5.04921 228.258 2.566 228.258 0.082774C223.903 0.082774 220.469 1.24161 217.035 3.8076C217.035 2.566 217.035 1.32438 217.035 0.082774ZM261.117 0V20.3624C261.117 25.4944 256.93 29.5503 251.738 29.5503C246.629 29.5503 242.442 25.4944 242.442 20.3624V0H234.988V20.3624C234.988 29.5503 242.526 37 251.738 37C261.033 37 268.571 29.5503 268.571 20.3624V0H261.117ZM297.639 3.97315C289.515 -4.22147 275.279 1.48994 275.279 12.9955C275.279 19.2036 275.279 30.7919 275.279 36.9172C277.791 36.9172 280.22 36.9172 282.732 36.9172C282.732 30.7919 282.732 19.2036 282.732 12.9955C282.732 10.0156 285.244 7.53243 288.343 7.53243C291.442 7.53243 293.954 10.0156 293.954 12.9955C293.954 19.2036 293.954 30.7919 293.954 36.9172C295.211 36.9172 296.383 36.9172 297.639 36.9172C298.896 36.9172 300.152 36.9172 301.408 36.9172C301.408 30.7919 301.408 19.2036 301.408 12.9955C301.408 10.0156 303.92 7.53243 307.019 7.53243C310.033 7.53243 312.546 10.0156 312.546 12.9955C312.546 19.2036 312.546 30.7919 312.546 36.9172C315.059 36.9172 317.571 36.9172 320 36.9172C320 30.7919 320 19.2036 320 12.9955C320 1.48994 305.846 -4.22147 297.639 3.97315Z" fill="white"/>
<path d="M22.3698 3.90787C14.2434 -4.3236 0 1.41349 0 12.9708C0 19.2068 0 30.8472 0 37C2.51365 37 4.94325 37 7.45689 37C7.45689 30.8472 7.45689 19.2068 7.45689 12.9708C7.45689 9.97749 9.97054 7.48315 13.0696 7.48315C16.1697 7.48315 18.6833 9.97749 18.6833 12.9708C18.6833 19.2068 18.6833 30.8472 18.6833 37C19.9402 37 21.1129 37 22.3698 37C23.6266 37 24.8834 37 26.1402 37C26.1402 30.8472 26.1402 19.2068 26.1402 12.9708C26.1402 9.97749 28.653 7.48315 31.753 7.48315C34.769 7.48315 37.2826 9.97749 37.2826 12.9708C37.2826 19.2068 37.2826 30.8472 37.2826 37C39.7963 37 42.3099 37 44.7395 37C44.7395 30.8472 44.7395 19.2068 44.7395 12.9708C44.7395 1.41349 30.5802 -4.3236 22.3698 3.90787ZM89.5631 7.4H106.319V0H89.5631C83.363 0 78.3357 4.98877 78.3357 11.1416C78.3357 16.5461 82.1903 21.036 87.3847 22.0337C88.0551 22.2001 88.8087 22.2001 89.5631 22.2001H97.7736C99.868 22.2001 101.544 23.863 101.544 25.9416C101.544 27.9371 99.868 29.6 97.7736 29.6H81.0165V37H97.7736C103.974 37 109 32.0944 109 25.9416C109 20.5371 105.146 16.0472 99.952 15.0494C99.2816 14.8832 98.5271 14.8 97.7736 14.8H89.5631C87.4678 14.8 85.7927 13.1371 85.7927 11.1416C85.7927 9.06293 87.4678 7.4 89.5631 7.4Z" fill="#B71C1C"/>
<path d="M71.4535 0V20.3624C71.4535 25.4944 67.2143 29.5503 61.9575 29.5503C56.7857 29.5503 52.5456 25.4944 52.5456 20.3624V0H45V20.3624C45 29.5503 52.6306 37 61.9575 37C71.3694 37 79 29.5503 79 20.3624V0H71.4535Z" fill="white"/>
</svg>
