<svg width="326" height="113" viewBox="0 0 326 113" fill="none" xmlns="http://www.w3.org/2000/svg">
<path d="M66.75 12.5C42.5 -12.25 0 5 0 39.75C0 58.5 0 93.5 0 112C7.5 112 14.75 112 22.25 112C22.25 93.5 22.25 58.5 22.25 39.75C22.25 30.75 29.75 23.25 39 23.25C48.25 23.25 55.75 30.75 55.75 39.75C55.75 58.5 55.75 93.5 55.75 112C59.5 112 63 112 66.75 112C70.5 112 74.25 112 78 112C78 93.5 78 58.5 78 39.75C78 30.75 85.5 23.25 94.75 23.25C103.75 23.25 111.25 30.75 111.25 39.75C111.25 58.5 111.25 93.5 111.25 112C118.75 112 126.25 112 133.5 112C133.5 93.5 133.5 58.5 133.5 39.75C133.5 5 91.25 -12.25 66.75 12.5ZM267.25 23H317.25V0.75H267.25C248.75 0.75 233.75 15.75 233.75 34.25C233.75 50.5 245.25 64 260.75 67C262.75 67.5 265 67.5 267.25 67.5H291.75C298 67.5 303 72.5 303 78.75C303 84.75 298 89.75 291.75 89.75H241.75V112H291.75C310.25 112 325.25 97.25 325.25 78.75C325.25 62.5 313.75 49 298.25 46C296.25 45.5 294 45.25 291.75 45.25H267.25C261 45.25 256 40.25 256 34.25C256 28 261 23 267.25 23Z" fill="#B71C1C"/>
<path d="M211.476 0.5V62C211.476 77.5 198.976 89.75 183.476 89.75C168.226 89.75 155.726 77.5 155.726 62V0.5H133.476V62C133.476 89.75 155.976 112.25 183.476 112.25C211.226 112.25 233.726 89.75 233.726 62V0.5H211.476Z" fill="white"/>
</svg>
